0
SECTION
2
HEADER
9
$INSUNITS
70
4
9
$ACADVER
1
AC1014
9
$HANDSEED
5
FFFF
0
ENDSEC
0
SECTION
2
TABLES
0
TABLE
2
VPORT
5
8
100
AcDbSymbolTable
0
ENDTAB
0
TABLE
2
LTYPE
5
5
100
AcDbSymbolTable
0
LTYPE
5
14
100
AcDbSymbolTableRecord
100
AcDbLinetypeTableRecord
2
BYBLOCK
70
0
0
LTYPE
5
15
100
AcDbSymbolTableRecord
100
AcDbLinetypeTableRecord
2
BYLAYER
70
0
0
ENDTAB
0
TABLE
2
LAYER
5
2
100
AcDbSymbolTable
70
2
0
LAYER
5
50
100
AcDbSymbolTableRecord
100
AcDbLayerTableRecord
2
0
70
0
6
CONTINUOUS
0
ENDTAB
0
TABLE
2
STYLE
5
3
100
AcDbSymbolTable
70
1
0
STYLE
5
11
100
AcDbSymbolTableRecord
100
AcDbTextStyleTableRecord
2
STANDARD
70
0
0
ENDTAB
0
TABLE
2
VIEW
5
6
100
AcDbSymbolTable
70
0
0
ENDTAB
0
TABLE
2
UCS
5
7
100
AcDbSymbolTable
70
0
0
ENDTAB
0
TABLE
2
APPID
5
9
100
AcDbSymbolTable
70
2
0
APPID
5
12
100
AcDbSymbolTableRecord
100
AcDbRegAppTableRecord
2
ACAD
70
0
0
ENDTAB
0
TABLE
2
DIMSTYLE
5
A
100
AcDbSymbolTable
70
1
0
ENDTAB
0
TABLE
2
BLOCK_RECORD
5
1
100
AcDbSymbolTable
70
1
0
BLOCK_RECORD
5
1F
100
AcDbSymbolTableRecord
100
AcDbBlockTableRecord
2
*MODEL_SPACE
0
BLOCK_RECORD
5
1B
100
AcDbSymbolTableRecord
100
AcDbBlockTableRecord
2
*PAPER_SPACE
0
ENDTAB
0
ENDSEC
0
SECTION
2
BLOCKS
0
BLOCK
5
20
100
AcDbEntity
100
AcDbBlockBegin
2
*MODEL_SPACE
0
ENDBLK
5
21
100
AcDbEntity
100
AcDbBlockEnd
0
BLOCK
5
1C
100
AcDbEntity
100
AcDbBlockBegin
2
*PAPER_SPACE
0
ENDBLK
5
1D
100
AcDbEntity
100
AcDbBlockEnd
0
ENDSEC
0
SECTION
2
ENTITIES
0
LWPOLYLINE
5
100
100
AcDbEntity
8
0
100
AcDbPolyline
90
8
70
1
43
0.0
10
88.249999999999943
20
22.01240038117632
42
0.41421356237309509
10
88.749999999999943
20
21.51240038117632
10
101.74999999999999
20
21.51240038117632
42
0.41421356237309509
10
102.25
20
22.01240038117632
10
102.25
20
35.012400381176292
42
0.41421356237309509
10
101.74999999999999
20
35.512400381176292
10
88.749999999999943
20
35.512400381176292
42
0.41421356237309509
10
88.249999999999943
20
35.012400381176292
0
LWPOLYLINE
5
101
100
AcDbEntity
8
0
100
AcDbPolyline
90
8
70
1
43
0.0
10
-99.868750000000048
20
2.9624003811763089
42
0.41421356237309509
10
-99.368750000000063
20
2.4624003811763107
10
-86.368750000000048
20
2.4624003811763018
42
0.41421356237309509
10
-85.868750000000048
20
2.9624003811763089
10
-85.868750000000063
20
15.962400381176316
42
0.41421356237309509
10
-86.368750000000048
20
16.462400381176316
10
-99.368750000000063
20
16.462400381176316
42
0.41421356237309509
10
-99.868750000000048
20
15.962400381176316
0
LWPOLYLINE
5
102
100
AcDbEntity
8
0
100
AcDbPolyline
90
8
70
1
43
0.0
10
-49.86250000000004
20
-3.0875996188236954
10
-49.86250000000004
20
-16.087599618823702
42
0.41421356237309509
10
-49.362500000000026
20
-16.587599618823674
10
-36.36250000000004
20
-16.587599618823674
42
0.41421356237308465
10
-35.862500000000054
20
-16.087599618823702
10
-35.862500000000054
20
-3.0875996188236954
42
0.41421356237308465
10
-36.36250000000004
20
-2.5875996188236883
10
-49.362500000000026
20
-2.5875996188236883
42
0.41421356237309509
0
LWPOLYLINE
5
103
100
AcDbEntity
8
0
100
AcDbPolyline
90
8
70
1
43
0.0
10
-95.106250000000045
20
-16.087599618823702
42
0.41421356237309509
10
-94.60625000000006
20
-16.58759961882371
10
-81.606250000000074
20
-16.587599618823674
42
0.41421356237310542
10
-81.10625000000006
20
-16.087599618823702
10
-81.106250000000045
20
-3.0875996188236954
42
0.41421356237309509
10
-81.606250000000045
20
-2.5875996188236883
10
-94.60625000000006
20
-2.5875996188236883
42
0.41421356237309509
10
-95.106250000000031
20
-3.0875996188236954
0
LWPOLYLINE
5
104
100
AcDbEntity
8
0
100
AcDbPolyline
90
8
70
1
43
0.0
10
-68.912500000000037
20
-16.087599618823702
42
0.41421356237309509
10
-68.412500000000037
20
-16.58759961882371
10
-55.412500000000037
20
-16.587599618823674
42
0.41421356237309509
10
-54.912500000000065
20
-16.087599618823702
10
-54.912500000000023
20
-3.0875996188236954
42
0.41421356237309509
10
-55.412500000000037
20
-2.5875996188236883
10
-68.412500000000037
20
-2.5875996188236883
42
0.41421356237309509
10
-68.912500000000051
20
-3.0875996188236954
0
LWPOLYLINE
5
105
100
AcDbEntity
8
0
100
AcDbPolyline
90
8
70
1
43
0.0
10
95.10624999999996
20
15.962400381176316
42
0.41421356237309509
10
94.606249999999946
20
16.462400381176316
10
81.606249999999903
20
16.462400381176316
42
0.41421356237309509
10
81.106249999999903
20
15.962400381176316
10
81.106249999999903
20
2.9624003811763089
42
0.41421356237309509
10
81.606249999999903
20
2.4624003811763018
10
94.606249999999918
20
2.4624003811763018
42
0.41421356237311585
10
95.10624999999996
20
2.9624003811763089
0
LWPOLYLINE
5
106
100
AcDbEntity
8
0
100
AcDbPolyline
90
8
70
1
43
0.0
10
-30.312500000000053
20
-2.5875996188236883
10
-17.312500000000046
20
-2.5875996188236883
42
-0.41421356237311585
10
-16.812500000000004
20
-3.0875996188236954
10
-16.812500000000039
20
-16.087599618823702
42
-0.41421356237311585
10
-17.312500000000046
20
-16.587599618823674
10
-30.312500000000053
20
-16.587599618823674
42
-0.41421356237309509
10
-30.812500000000025
20
-16.087599618823702
10
-30.81250000000006
20
-3.0875996188236954
42
-0.41421356237309509
0
LWPOLYLINE
5
107
100
AcDbEntity
8
0
100
AcDbPolyline
90
8
70
1
43
0.0
10
39.837499999999949
20
-16.58759961882371
42
0.41421356237309509
10
40.337499999999963
20
-16.087599618823702
10
40.337499999999991
20
-3.0875996188236954
42
0.41421356237309509
10
39.837499999999949
20
-2.5875996188236883
10
26.837499999999981
20
-2.5875996188236883
42
0.41421356237309509
10
26.337499999999974
20
-3.0875996188236954
10
26.337499999999974
20
-16.087599618823702
42
0.41421356237309509
10
26.837499999999981
20
-16.58759961882371
0
LWPOLYLINE
5
108
100
AcDbEntity
8
0
100
AcDbPolyline
90
8
70
1
43
0.0
10
2.2374999999999368
20
-3.0875996188236954
42
0.41421356237309509
10
1.7374999999999297
20
-2.5875996188236883
10
-11.262500000000042
20
-2.5875996188236883
42
0.41421356237309509
10
-11.762500000000014
20
-3.0875996188236954
10
-11.762500000000049
20
-16.087599618823702
42
0.41421356237309509
10
-11.262500000000042
20
-16.58759961882371
10
1.7374999999999297
20
-16.58759961882371
42
0.41421356237309509
10
2.2374999999999368
20
-16.087599618823702
0
LWPOLYLINE
5
109
100
AcDbEntity
8
0
100
AcDbPolyline
90
8
70
1
43
0.0
10
45.887499999999989
20
-2.5875996188236883
42
0.41421356237309509
10
45.387499999999989
20
-3.0875996188236954
10
45.387499999999989
20
-16.087599618823702
42
0.41421356237309509
10
45.887499999999989
20
-16.58759961882371
10
58.88749999999996
20
-16.58759961882371
42
0.41421356237309509
10
59.387499999999974
20
-16.087599618823702
10
59.387499999999932
20
-3.0875996188236954
42
0.41421356237307422
10
58.887500000000003
20
-2.5875996188236883
0
LWPOLYLINE
5
110
100
AcDbEntity
8
0
100
AcDbPolyline
90
8
70
1
43
0.0
10
20.787499999999941
20
-16.58759961882371
42
0.41421356237309509
10
21.287499999999948
20
-16.087599618823702
10
21.287499999999948
20
-3.0875996188236954
42
0.41421356237309509
10
20.787499999999941
20
-2.5875996188236883
10
7.7874999999999694
20
-2.5875996188236883
42
0.41421356237309509
10
7.2874999999999979
20
-3.0875996188236954
10
7.2874999999999979
20
-16.087599618823702
42
0.41421356237309509
10
7.7874999999999694
20
-16.587599618823674
0
LWPOLYLINE
5
111
100
AcDbEntity
8
0
100
AcDbPolyline
90
8
70
1
43
0.0
10
11.262499999999935
20
2.4624003811763107
42
0.41421356237309509
10
11.762499999999942
20
2.9624003811763089
10
11.762499999999942
20
15.962400381176316
42
0.41421356237309509
10
11.262499999999935
20
16.462400381176316
10
-1.7375000000000362
20
16.462400381176316
42
0.41421356237309509
10
-2.2375000000000433
20
15.962400381176316
10
-2.2375000000000433
20
2.9624003811763089
42
0.41421356237309509
10
-1.7375000000000362
20
2.4624003811763107
0
LWPOLYLINE
5
112
100
AcDbEntity
8
0
100
AcDbPolyline
90
8
70
1
43
0.0
10
17.312499999999975
20
16.462400381176323
10
30.312499999999947
20
16.462400381176323
42
-0.41421356237309509
10
30.812499999999954
20
15.962400381176316
10
30.812499999999954
20
2.9624003811763089
42
-0.41421356237309509
10
30.312499999999947
20
2.4624003811763018
10
17.312499999999975
20
2.4624003811763373
42
-0.41421356237309509
10
16.812500000000004
20
2.9624003811763089
10
16.812499999999968
20
15.962400381176316
42
-0.41421356237309509
0
LWPOLYLINE
5
113
100
AcDbEntity
8
0
100
AcDbPolyline
90
8
70
1
43
0.0
10
55.412499999999994
20
16.462400381176316
42
0.41421356237309509
10
54.912499999999994
20
15.962400381176316
10
54.912499999999952
20
2.9624003811763089
42
0.41421356237309509
10
55.412499999999994
20
2.4624003811763107
10
68.412499999999966
20
2.4624003811763107
42
0.41421356237309509
10
68.91249999999998
20
2.9624003811763089
10
68.91249999999998
20
15.962400381176316
42
0.41421356237309509
10
68.412499999999966
20
16.462400381176316
0
LWPOLYLINE
5
114
100
AcDbEntity
8
0
100
AcDbPolyline
90
8
70
1
43
0.0
10
35.86249999999994
20
15.962400381176316
10
35.86249999999994
20
2.9624003811763089
42
0.41421356237309509
10
36.362499999999983
20
2.4624003811763107
10
49.362499999999997
20
2.4624003811763018
42
0.41421356237307422
10
49.862499999999969
20
2.9624003811763089
10
49.862499999999926
20
15.962400381176316
42
0.41421356237307422
10
49.362499999999997
20
16.462400381176323
10
36.362499999999983
20
16.462400381176323
42
0.41421356237309509
0
LWPOLYLINE
5
115
100
AcDbEntity
8
0
100
AcDbPolyline
90
8
70
1
43
0.0
10
82.699999999999903
20
21.51240038117632
42
0.41421356237309509
10
83.199999999999918
20
22.01240038117632
10
83.199999999999918
20
35.012400381176292
42
0.41421356237309509
10
82.699999999999903
20
35.512400381176292
10
69.699999999999932
20
35.512400381176292
42
0.41421356237309509
10
69.199999999999932
20
35.012400381176292
10
69.199999999999932
20
22.01240038117632
42
0.41421356237309509
10
69.699999999999932
20
21.51240038117632
0
LWPOLYLINE
5
116
100
AcDbEntity
8
0
100
AcDbPolyline
90
8
70
1
43
0.0
10
-77.937500000000043
20
16.462400381176323
10
-64.937500000000043
20
16.462400381176323
42
-0.41421356237309509
10
-64.437500000000028
20
15.962400381176316
10
-64.437500000000028
20
2.9624003811763089
42
-0.41421356237309509
10
-64.937500000000043
20
2.4624003811763018
10
-77.937500000000043
20
2.4624003811763018
42
-0.41421356237309509
10
-78.437500000000057
20
2.9624003811763089
10
-78.437500000000057
20
15.962400381176316
42
-0.41421356237309509
0
LWPOLYLINE
5
117
100
AcDbEntity
8
0
100
AcDbPolyline
90
8
70
1
43
0.0
10
-59.387500000000045
20
15.962400381176316
10
-59.387500000000045
20
2.9624003811763089
42
0.41421356237309509
10
-58.887500000000031
20
2.4624003811763018
10
-45.887500000000031
20
2.4624003811763018
42
0.41421356237309509
10
-45.38750000000006
20
2.9624003811763089
10
-45.38750000000006
20
15.962400381176316
42
0.41421356237309509
10
-45.887500000000031
20
16.462400381176316
10
-58.887500000000031
20
16.462400381176323
42
0.41421356237309509
0
LWPOLYLINE
5
118
100
AcDbEntity
8
0
100
AcDbPolyline
90
8
70
1
43
0.0
10
-26.837500000000052
20
2.4624003811763107
42
0.41421356237309509
10
-26.337500000000045
20
2.9624003811763089
10
-26.337500000000045
20
15.962400381176316
42
0.41421356237309509
10
-26.837500000000052
20
16.462400381176323
10
-39.837500000000063
20
16.462400381176316
42
0.41421356237309509
10
-40.337500000000034
20
15.962400381176316
10
-40.337500000000063
20
2.9624003811763089
42
0.41421356237309509
10
-39.837500000000063
20
2.4624003811763107
0
LWPOLYLINE
5
119
100
AcDbEntity
8
0
100
AcDbPolyline
90
8
70
1
43
0.0
10
-20.787500000000048
20
2.4624003811763018
10
-7.7875000000000405
20
2.4624003811763018
42
0.41421356237309509
10
-7.2875000000000334
20
2.9624003811763089
10
-7.2875000000000334
20
15.962400381176316
42
0.41421356237309509
10
-7.7875000000000405
20
16.462400381176323
10
-20.787500000000048
20
16.462400381176323
42
0.41421356237309509
10
-21.287500000000055
20
15.962400381176316
10
-21.287500000000055
20
2.9624003811763089
42
0.41421356237309509
0
LWPOLYLINE
5
120
100
AcDbEntity
8
0
100
AcDbPolyline
90
8
70
1
43
0.0
10
31.599999999999984
20
21.512400381176313
10
44.599999999999952
20
21.512400381176313
42
0.41421356237309509
10
45.099999999999966
20
22.01240038117632
10
45.099999999999966
20
35.012400381176292
42
0.41421356237309509
10
44.599999999999952
20
35.512400381176292
10
31.599999999999984
20
35.512400381176292
42
0.41421356237309509
10
31.099999999999977
20
35.012400381176292
10
31.099999999999941
20
22.012400381176292
42
0.41421356237307944
0
LWPOLYLINE
5
121
100
AcDbEntity
8
0
100
AcDbPolyline
90
8
70
1
43
0.0
10
50.649999999999991
20
35.512400381176334
10
63.649999999999963
20
35.512400381176299
42
-0.41421356237309509
10
64.149999999999977
20
35.012400381176292
10
64.149999999999977
20
22.01240038117632
42
-0.41421356237309509
10
63.649999999999963
20
21.512400381176313
10
50.649999999999991
20
21.512400381176313
42
-0.41421356237309509
10
50.149999999999991
20
22.01240038117632
10
50.149999999999949
20
35.012400381176292
42
-0.41421356237309509
0
LWPOLYLINE
5
122
100
AcDbEntity
8
0
100
AcDbPolyline
90
8
70
1
43
0.0
10
-88.250000000000043
20
35.012400381176292
10
-88.250000000000057
20
22.012400381176292
42
-0.41421356237307944
10
-88.750000000000057
20
21.51240038117632
10
-101.75000000000004
20
21.512400381176349
42
-0.41421356237307944
10
-102.25000000000003
20
22.012400381176292
10
-102.25000000000006
20
35.012400381176292
42
-0.41421356237309509
10
-101.75000000000006
20
35.512400381176292
10
-88.750000000000071
20
35.512400381176299
42
-0.41421356237310542
0
LWPOLYLINE
5
123
100
AcDbEntity
8
0
100
AcDbPolyline
90
8
70
1
43
0.0
10
12.049999999999965
20
22.01240038117632
42
0.41421356237309509
10
12.549999999999972
20
21.51240038117632
10
25.549999999999944
20
21.51240038117632
42
0.41421356237309509
10
26.049999999999951
20
22.01240038117632
10
26.049999999999986
20
35.012400381176292
42
0.41421356237309509
10
25.549999999999944
20
35.512400381176334
10
12.549999999999972
20
35.512400381176292
42
0.41421356237309509
10
12.049999999999965
20
35.012400381176292
0
LWPOLYLINE
5
124
100
AcDbEntity
8
0
100
AcDbPolyline
90
8
70
1
43
0.0
10
-7.0000000000000107
20
35.012400381176292
10
-7.0000000000000107
20
22.012400381176292
42
0.41421356237307944
10
-6.5000000000000391
20
21.51240038117632
10
6.5000000000000036
20
21.51240038117632
42
0.41421356237307944
10
6.9999999999999751
20
22.012400381176292
10
6.9999999999999751
20
35.012400381176292
42
0.41421356237309509
10
6.5000000000000036
20
35.512400381176292
10
-6.5000000000000391
20
35.512400381176292
42
0.41421356237309509
0
LWPOLYLINE
5
125
100
AcDbEntity
8
0
100
AcDbPolyline
90
8
70
1
43
0.0
10
-63.650000000000034
20
35.512400381176292
42
0.41421356237309509
10
-64.150000000000048
20
35.012400381176292
10
-64.150000000000048
20
22.01240038117632
42
0.41421356237309509
10
-63.650000000000034
20
21.51240038117632
10
-50.650000000000034
20
21.51240038117632
42
0.41421356237309509
10
-50.15000000000002
20
22.01240038117632
10
-50.150000000000063
20
35.012400381176292
42
0.41421356237309509
10
-50.650000000000034
20
35.512400381176334
0
LWPOLYLINE
5
126
100
AcDbEntity
8
0
100
AcDbPolyline
90
8
70
1
43
0.0
10
-69.200000000000045
20
35.012400381176292
42
0.41421356237309509
10
-69.700000000000045
20
35.512400381176292
10
-82.700000000000045
20
35.512400381176292
42
0.41421356237309509
10
-83.200000000000045
20
35.012400381176292
10
-83.200000000000045
20
22.01240038117632
42
0.41421356237309509
10
-82.700000000000045
20
21.512400381176313
10
-69.700000000000045
20
21.512400381176313
42
0.41421356237309509
10
-69.200000000000045
20
22.01240038117632
0
LWPOLYLINE
5
127
100
AcDbEntity
8
0
100
AcDbPolyline
90
8
70
1
43
0.0
10
-31.100000000000048
20
35.012400381176292
42
0.41421356237309509
10
-31.600000000000055
20
35.512400381176292
10
-44.600000000000065
20
35.512400381176292
42
0.41421356237309509
10
-45.100000000000065
20
35.012400381176292
10
-45.100000000000037
20
22.012400381176292
42
0.41421356237307944
10
-44.600000000000065
20
21.512400381176313
10
-31.600000000000055
20
21.51240038117632
42
0.41421356237309509
10
-31.100000000000048
20
22.01240038117632
0
LWPOLYLINE
5
128
100
AcDbEntity
8
0
100
AcDbPolyline
90
8
70
1
43
0.0
10
-25.55000000000005
20
35.512400381176334
10
-12.550000000000043
20
35.512400381176299
42
-0.41421356237309509
10
-12.050000000000036
20
35.012400381176292
10
-12.050000000000036
20
22.01240038117632
42
-0.41421356237309509
10
-12.550000000000043
20
21.512400381176313
10
-25.55000000000005
20
21.512400381176313
42
-0.41421356237309509
10
-26.050000000000058
20
22.01240038117632
10
-26.050000000000093
20
35.012400381176292
42
-0.41421356237309509
0
LINE
5
129
100
AcDbEntity
8
0
100
AcDbLine
10
51.028679645903416
20
38.037400381176326
30
1.1102230246251565e-15
11
102.77500000000006
21
38.037400381176326
31
1.1102230246251565e-15
0
ARC
5
130
100
AcDbEntity
8
0
100
AcDbCircle
10
102.77500000000003
20
36.037400381176369
30
0
40
1.9999999999999574
210
-0
220
0
230
1
100
AcDbArc
50
0
51
89.999999999999588
0
LINE
5
131
100
AcDbEntity
8
0
100
AcDbLine
10
104.77499999999999
20
-36.16259961882367
30
1.1102230246251565e-15
11
104.77499999999999
21
36.03740038117634
31
1.1102230246251565e-15
0
ARC
5
132
100
AcDbEntity
8
0
100
AcDbCircle
10
102.77500000000003
20
-36.162599618823705
30
1.1102230246251565e-15
40
1.9999999999999751
210
0
220
0
230
1
100
AcDbArc
50
269.99999999999795
51
360
0
LINE
5
133
100
AcDbEntity
8
0
100
AcDbLine
10
-102.77500000000005
20
-38.162599618823663
30
0
11
102.77499999999998
21
-38.162599618823656
31
0
0
ARC
5
134
100
AcDbEntity
8
0
100
AcDbCircle
10
-102.77500000000005
20
-36.16259961882367
30
1.1102230246251565e-15
40
1.9999999999999929
210
0
220
0
230
1
100
AcDbArc
50
180
51
270
0
LINE
5
135
100
AcDbEntity
8
0
100
AcDbLine
10
-104.77500000000005
20
31.187400381176342
30
1.1102230246251565e-15
11
-104.77500000000005
21
36.03740038117634
31
1.1102230246251565e-15
0
ARC
5
136
100
AcDbEntity
8
0
100
AcDbCircle
10
-102.77500000000005
20
36.037400381176354
30
0
40
1.9999999999999929
210
0
220
0
230
1
100
AcDbArc
50
90.000000000000398
51
180
0
LINE
5
137
100
AcDbEntity
8
0
100
AcDbLine
10
-102.77500000000006
20
38.037400381176347
30
1.1102230246251565e-15
11
51.907359291806841
21
38.03740038117634
31
1.1102230246251565e-15
0
LINE
5
138
100
AcDbEntity
8
0
100
AcDbLine
10
51.907359291806827
20
38.037400381176326
30
1.1102230246251565e-15
11
50.14999999999997
21
38.037400381176326
31
1.1102230246251565e-15
0
LINE
5
139
100
AcDbEntity
8
0
100
AcDbLine
10
-104.77500000000005
20
-36.16259961882367
30
1.1102230246251565e-15
11
-104.77500000000005
21
31.187400381176353
31
1.1102230246251565e-15
0
ARC
5
140
100
AcDbEntity
8
0
100
AcDbCircle
10
-66.674999999999912
20
42.037400381177278
30
0
40
2.0000000000000018
210
-8.7581154020300989e-46
220
-4.9303806576313238e-32
230
1
100
AcDbArc
50
89.99999999999919
51
164.99999999999883
0
LINE
5
141
100
AcDbEntity
8
0
100
AcDbLine
10
-68.60685165257803
20
42.55503847138236
30
0
11
-69.817349130544642
21
38.037400381177321
31
0
0
LINE
5
142
100
AcDbEntity
8
0
100
AcDbLine
10
-63.532650869455303
20
38.037400381177221
30
1.1102230246251565e-15
11
-69.817349130544628
21
38.037400381177306
31
1.1102230246251565e-15
0
LINE
5
143
100
AcDbEntity
8
0
100
AcDbLine
10
-63.766427828289167
20
38.909867869184183
30
0
11
-63.53265086945531
21
38.037400381177214
31
0
0
ARC
5
144
100
AcDbEntity
8
0
100
AcDbCircle
10
-62.317539088855568
20
39.298096436837952
30
0
40
1.5000000000000036
210
-5.8387436013533907e-46
220
-4.930380657631338e-32
230
1
100
AcDbArc
50
89.99999999999919
51
194.99999999999946
0
LINE
5
145
100
AcDbEntity
8
0
100
AcDbLine
10
-62.317539088855547
20
40.798096436837952
30
1.1102230246251565e-15
11
-59.582843028836095
21
40.798096436837909
31
1.1102230246251565e-15
0
ARC
5
146
100
AcDbEntity
8
0
100
AcDbCircle
10
-59.582843028836123
20
39.298096436837952
30
0
40
1.4999999999999845
210
0
220
-0
230
1
100
AcDbArc
50
44.999999999998465
51
89.99999999999946
0
LINE
5
147
100
AcDbEntity
8
0
100
AcDbLine
10
-57.14016645783591
20
38.97674020939732
30
0
11
-58.522182857056279
21
40.358756608617732
31
0
0
ARC
5
148
100
AcDbEntity
8
0
100
AcDbCircle
10
-56.079506286056088
20
40.037400381177086
30
1.1102230246251565e-15
40
1.4999999999999565
210
-5.8105093280704932e-32
220
-5.8105093280701779e-32
230
1
100
AcDbArc
50
224.99999999999827
51
269.9999999999992
0
LINE
5
149
100
AcDbEntity
8
0
100
AcDbLine
10
-56.079506286056109
20
38.537400381177136
30
0
11
-38.917893218813106
21
38.537400381176894
31
0
0
ARC
5
150
100
AcDbEntity
8
0
100
AcDbCircle
10
-38.91789321881312
20
40.03740038117698
30
1.1102230246251565e-15
40
1.5000000000000879
210
9.7312393355878667e-46
220
-8.217301096051725e-32
230
1
100
AcDbArc
50
270.00000000000057
51
315.00000000000421
0
LINE
5
151
100
AcDbEntity
8
0
100
AcDbLine
10
-36.210786437626865
20
40.623186818803759
30
1.1102230246251565e-15
11
-37.857233047033148
21
38.976740209397171
31
1.1102230246251565e-15
0
ARC
5
152
100
AcDbEntity
8
0
100
AcDbCircle
10
-37.624999999999957
20
42.037400381176866
30
0
40
2.0000000000000084
210
3.4863055968421203e-32
220
3.4863055968420776e-32
230
1
100
AcDbArc
50
-45.000000000000306
51
89.999999999998991
0
LINE
5
153
100
AcDbEntity
8
0
100
AcDbLine
10
-37.624999999999922
20
44.037400381176859
30
1.1102230246251565e-15
11
-52.816359044672382
21
44.037400381177072
31
1.1102230246251565e-15
0
LINE
5
154
100
AcDbEntity
8
0
100
AcDbLine
10
-40.362937171780672
20
41.787400381176916
30
0
11
-50.098669904504675
21
41.787400381177051
31
0
0
ARC
5
155
100
AcDbEntity
8
0
100
AcDbCircle
10
-40.362937171780686
20
41.037400381176909
30
1.1102230246251565e-15
40
0.74999999999998113
210
0
220
0
230
1
100
AcDbArc
50
-128.94244066527276
51
89.99999999999892
0
ARC
5
156
100
AcDbEntity
8
0
100
AcDbCircle
10
-41.777150715714555
20
39.287400366275769
30
0
40
1.5000000000000011
210
0
220
-0
230
1
100
AcDbArc
50
51.057559334727522
51
89.99999999999973
0
LINE
5
157
100
AcDbEntity
8
0
100
AcDbLine
10
-41.777150715714541
20
40.787400366275754
30
1.1102230246251565e-15
11
-50.225021322202025
21
40.787400366275875
31
1.1102230246251565e-15
0
ARC
5
158
100
AcDbEntity
8
0
100
AcDbCircle
10
-50.225021322202053
20
39.287400366275932
30
0
40
1.499999999999968
210
-1.1677487202707058e-45
220
-4.9303806576313096e-32
230
1
100
AcDbArc
50
89.99999999999892
51
136.56746314828601
0
ARC
5
159
100
AcDbEntity
8
0
100
AcDbCircle
10
-53.129758817750208
20
42.037400381177079
30
0
40
2.4999999999999969
210
0
220
0
230
1
100
AcDbArc
50
243.69485101595382
51
316.5674631482853
0
ARC
5
160
100
AcDbEntity
8
0
100
AcDbCircle
10
-54.902365831087074
20
38.451613943550207
30
0
40
1.4999999999999856
210
-2.2099115118090492e-32
220
1.0924534165172041e-32
230
1
100
AcDbArc
50
63.694851015953766
51
80.963254159497836
0
ARC
5
161
100
AcDbEntity
8
0
100
AcDbCircle
10
-54.665292723682946
20
41.451613943550214
30
0
40
1.5000000000000346
210
0
220
0
230
1
100
AcDbArc
50
224.99999999999963
51
260.96325415943079
0
LINE
5
162
100
AcDbEntity
8
0
100
AcDbLine
10
-55.725952895462797
20
40.390953771770377
30
1.1102230246251565e-15
11
-58.933059676648547
21
43.598060552956241
31
1.1102230246251565e-15
0
ARC
5
163
100
AcDbEntity
8
0
100
AcDbCircle
10
-59.993719848428384
20
42.537400381176397
30
0
40
1.5000000000000411
210
0
220
-0
230
1
100
AcDbArc
50
45.000000000000199
51
89.999999999992397
0
LINE
5
164
100
AcDbEntity
8
0
100
AcDbLine
10
-59.993719848428206
20
44.037400381176454
30
1.1102230246251565e-15
11
-66.674999999999883
21
44.037400381177278
31
1.1102230246251565e-15
0
ARC
5
165
100
AcDbEntity
8
0
100
AcDbCircle
10
-66.674999999999912
20
-42.162599618824643
30
1.1102230246251565e-15
40
2.0000000000000044
210
1.2760764138001377e-32
220
-4.7623820106421485e-32
230
1
100
AcDbArc
50
195.00000000000074
51
270.0000000000004
0
LINE
5
166
100
AcDbEntity
8
0
100
AcDbLine
10
-68.606851652578044
20
-42.680237709029711
30
1.1102230246251565e-15
11
-69.817349130544656
21
-38.162599618824672
31
1.1102230246251565e-15
0
LINE
5
167
100
AcDbEntity
8
0
100
AcDbLine
10
-63.532650869455324
20
-38.162599618824586
30
0
11
-69.817349130544656
21
-38.162599618824672
31
0
0
LINE
5
168
100
AcDbEntity
8
0
100
AcDbLine
10
-63.766427828289153
20
-39.035067106831534
30
1.1102230246251565e-15
11
-63.532650869455324
21
-38.162599618824565
31
1.1102230246251565e-15
0
ARC
5
169
100
AcDbEntity
8
0
100
AcDbCircle
10
-62.317539088855568
20
-39.423295674485317
30
1.1102230246251565e-15
40
1.4999999999999745
210
0
220
0
230
1
100
AcDbArc
50
165.00000000000108
51
270.0000000000008
0
LINE
5
170
100
AcDbEntity
8
0
100
AcDbLine
10
-62.317539088855568
20
-40.923295674485303
30
0
11
-59.582843028836109
21
-40.923295674485246
31
0
0
ARC
5
171
100
AcDbEntity
8
0
100
AcDbCircle
10
-59.582843028836109
20
-39.423295674485317
30
1.1102230246251565e-15
40
1.499999999999968
210
0
220
-8.2173010960523818e-32
230
1
100
AcDbArc
50
270
51
315.00000000000171
0
LINE
5
172
100
AcDbEntity
8
0
100
AcDbLine
10
-57.140166457835932
20
-39.101939447044671
30
1.1102230246251565e-15
11
-58.522182857056265
21
-40.483955846265083
31
1.1102230246251565e-15
0
ARC
5
173
100
AcDbEntity
8
0
100
AcDbCircle
10
-56.079506286056088
20
-40.162599618824437
30
0
40
1.4999999999999503
210
0
220
0
230
1
100
AcDbArc
50
90.000000000001634
51
135.00000000000213
0
LINE
5
174
100
AcDbEntity
8
0
100
AcDbLine
10
-56.07950628605613
20
-38.662599618824487
30
0
11
-38.917893218813106
21
-38.662599618824245
31
0
0
ARC
5
175
100
AcDbEntity
8
0
100
AcDbCircle
10
-38.91789321881312
20
-40.162599618824331
30
0
40
1.5000000000000848
210
0
220
-0
230
1
100
AcDbArc
50
44.999999999995765
51
89.99999999999946
0
LINE
5
176
100
AcDbEntity
8
0
100
AcDbLine
10
-36.210786437626879
20
-40.748386056451125
30
0
11
-37.857233047033162
21
-39.101939447044543
31
0
0
ARC
5
177
100
AcDbEntity
8
0
100
AcDbCircle
10
-37.624999999999972
20
-42.162599618824217
30
1.1102230246251565e-15
40
2.0000000000000107
210
-0
220
0
230
1
100
AcDbArc
50
-89.99999999999919
51
45.000000000000291
0
LINE
5
178
100
AcDbEntity
8
0
100
AcDbLine
10
-37.624999999999943
20
-44.162599618824245
30
0
11
-53.129758817750172
21
-44.162599618824459
31
0
0
LINE
5
179
100
AcDbEntity
8
0
100
AcDbLine
10
-40.362937171780672
20
-41.912599618824267
30
1.1102230246251565e-15
11
-50.098669904504675
21
-41.912599618824387
31
1.1102230246251565e-15
0
ARC
5
180
100
AcDbEntity
8
0
100
AcDbCircle
10
-40.362937171780686
20
-41.162599618824274
30
0
40
0.75000000000001066
210
-0
220
0
230
1
100
AcDbArc
50
-89.999999999998934
51
128.94244066527418
0
ARC
5
181
100
AcDbEntity
8
0
100
AcDbCircle
10
-41.777150715714541
20
-39.41259960392312
30
1.1102230246251565e-15
40
1.4999999999999947
210
-0
220
0
230
1
100
AcDbArc
50
270
51
308.9424406652725
0
LINE
5
182
100
AcDbEntity
8
0
100
AcDbLine
10
-41.777150715714541
20
-40.912599603923141
30
0
11
-50.225021322202025
21
-40.912599603923269
31
0
0
ARC
5
183
100
AcDbEntity
8
0
100
AcDbCircle
10
-50.225021322202053
20
-39.412599603923297
30
1.1102230246251565e-15
40
1.4999999999999565
210
0
220
0
230
1
100
AcDbArc
50
223.43253685171439
51
270.00000000000159
0
ARC
5
184
100
AcDbEntity
8
0
100
AcDbCircle
10
-53.129758817750208
20
-42.16259961882443
30
1.1102230246251565e-15
40
2.5000000000000027
210
0
220
-0
230
1
100
AcDbArc
50
43.432536851714467
51
116.30514898404613
0
ARC
5
185
100
AcDbEntity
8
0
100
AcDbCircle
10
-54.902365831087053
20
-38.576813181197558
30
0
40
1.4999999999982718
210
-0
220
0
230
1
100
AcDbArc
50
279.036745840501
51
296.30514898404601
0
ARC
5
186
100
AcDbEntity
8
0
100
AcDbCircle
10
-54.665292723682924
20
-41.576813181197565
30
0
40
1.5000000000017424
210
3.7946858423773244e-48
220
-2.3859656434420858e-47
230
1
100
AcDbArc
50
99.036745840570077
51
135.00000000000156
0
LINE
5
187
100
AcDbEntity
8
0
100
AcDbLine
10
-55.725952895462797
20
-40.516153009417764
30
0
11
-58.933059676648568
21
-43.72325979060362
31
0
0
ARC
5
188
100
AcDbEntity
8
0
100
AcDbCircle
10
-59.993719848428398
20
-42.662599618823762
30
1.1102230246251565e-15
40
1.5000000000000568
210
-0
220
0
230
1
100
AcDbArc
50
270.00000000000813
51
314.99999999999943
0
LINE
5
189
100
AcDbEntity
8
0
100
AcDbLine
10
-59.993719848428185
20
-44.162599618823819
30
0
11
-66.674999999999883
21
-44.162599618824657
31
0
0
LINE
5
190
100
AcDbEntity
8
0
100
AcDbLine
10
40.362937171780722
20
-41.912599618823698
30
1.1102230246251565e-15
11
50.098669904504725
21
-41.912599618823698
31
1.1102230246251565e-15
0
ARC
5
191
100
AcDbEntity
8
0
100
AcDbCircle
10
40.362937171780722
20
-41.162599618823705
30
0
40
0.74999999999998668
210
0
220
-0
230
1
100
AcDbArc
50
51.057559334726506
51
270
0
ARC
5
192
100
AcDbEntity
8
0
100
AcDbCircle
10
41.777150715714555
20
-39.412599603922551
30
1.1102230246251565e-15
40
1.4999999999999898
210
0
220
0
230
1
100
AcDbArc
50
231.0575593347279
51
270
0
LINE
5
193
100
AcDbEntity
8
0
100
AcDbLine
10
41.777150715714555
20
-40.912599603922537
30
0
11
50.225021322202039
21
-40.912599603922537
31
0
0
ARC
5
194
100
AcDbEntity
8
0
100
AcDbCircle
10
50.225021322202075
20
-39.412599603922587
30
1.1102230246251565e-15
40
1.4999999999999591
210
0
220
0
230
1
100
AcDbArc
50
269.99999999999864
51
316.56746314828638
0
ARC
5
195
100
AcDbEntity
8
0
100
AcDbCircle
10
53.129758817750243
20
-42.162599618823684
30
1.1102230246251565e-15
40
2.4999999999999893
210
0
220
-0
230
1
100
AcDbArc
50
63.694851015954256
51
136.5674631482853
0
ARC
5
196
100
AcDbEntity
8
0
100
AcDbCircle
10
54.902365831087074
20
-38.576813181196776
30
0
40
1.4999999999999856
210
-2.2099115118090642e-32
220
1.0924534165171748e-32
230
1
100
AcDbArc
50
243.69485101595382
51
260.96325415946484
0
ARC
5
197
100
AcDbEntity
8
0
100
AcDbCircle
10
54.665292723682981
20
-41.576813181196783
30
0
40
1.5000000000000284
210
0
220
-0
230
1
100
AcDbArc
50
44.999999999999808
51
80.963254159464796
0
LINE
5
198
100
AcDbEntity
8
0
100
AcDbLine
10
55.725952895462854
20
-40.516153009416982
30
0
11
58.933059676648639
21
-43.723259790602796
31
0
0
ARC
5
199
100
AcDbEntity
8
0
100
AcDbCircle
10
59.993719848428455
20
-42.66259961882291
30
1.1102230246251565e-15
40
1.5000000000000535
210
0
220
0
230
1
100
AcDbArc
50
225.00000000000117
51
269.99999999999324
0
LINE
5
200
100
AcDbEntity
8
0
100
AcDbLine
10
59.993719848428277
20
-44.162599618822966
30
0
11
66.674999999999955
21
-44.162599618823691
31
0
0
ARC
5
201
100
AcDbEntity
8
0
100
AcDbCircle
10
66.674999999999969
20
-42.162599618823684
30
1.1102230246251565e-15
40
2.0000000000000107
210
-0
220
0
230
1
100
AcDbArc
50
270
51
344.9999999999996
0
LINE
5
202
100
AcDbEntity
8
0
100
AcDbLine
10
68.606851652578086
20
-42.680237709028717
30
1.1102230246251565e-15
11
69.817349130544642
21
-38.16259961882367
31
1.1102230246251565e-15
0
LINE
5
203
100
AcDbEntity
8
0
100
AcDbLine
10
63.532650869455303
20
-38.162599618823698
30
0
11
69.817349130544628
21
-38.162599618823698
31
0
0
LINE
5
204
100
AcDbEntity
8
0
100
AcDbLine
10
63.766427828289167
20
-39.035067106830645
30
1.1102230246251565e-15
11
63.532650869455296
21
-38.162599618823677
31
1.1102230246251565e-15
0
ARC
5
205
100
AcDbEntity
8
0
100
AcDbCircle
10
62.317539088855582
20
-39.423295674484429
30
1.1102230246251565e-15
40
1.4999999999999947
210
-0
220
0
230
1
100
AcDbArc
50
-90
51
15.000000000000169
0
LINE
5
206
100
AcDbEntity
8
0
100
AcDbLine
10
62.317539088855582
20
-40.92329567448445
30
0
11
59.58284302883613
21
-40.92329567448445
31
0
0
ARC
5
207
100
AcDbEntity
8
0
100
AcDbCircle
10
59.582843028836123
20
-39.423295674484464
30
1.1102230246251565e-15
40
1.499999999999972
210
0
220
0
230
1
100
AcDbArc
50
225
51
270.00000000000108
0
LINE
5
208
100
AcDbEntity
8
0
100
AcDbLine
10
57.140166457835946
20
-39.10193944704389
30
1.1102230246251565e-15
11
58.522182857056329
21
-40.483955846264266
31
1.1102230246251565e-15
0
ARC
5
209
100
AcDbEntity
8
0
100
AcDbCircle
10
56.079506286056144
20
-40.16259961882362
30
0
40
1.4999999999999467
210
0
220
-0
230
1
100
AcDbArc
50
44.999999999999034
51
90.00000000000054
0
LINE
5
210
100
AcDbEntity
8
0
100
AcDbLine
10
56.079506286056109
20
-38.662599618823705
30
0
11
38.917893218813113
21
-38.662599618823705
31
0
0
ARC
5
211
100
AcDbEntity
8
0
100
AcDbCircle
10
38.917893218813155
20
-40.162599618823762
30
0
40
1.5000000000000835
210
0
220
0
230
1
100
AcDbArc
50
90.000000000001364
51
135.0000000000054
0
LINE
5
212
100
AcDbEntity
8
0
100
AcDbLine
10
36.210786437626901
20
-40.748386056450627
30
0
11
37.857233047033162
21
-39.101939447044018
31
0
0
ARC
5
213
100
AcDbEntity
8
0
100
AcDbCircle
10
37.625000000000028
20
-42.162599618823684
30
1.1102230246251565e-15
40
1.999999999999996
210
0
220
0
230
1
100
AcDbArc
50
135.00000000000074
51
270
0
LINE
5
214
100
AcDbEntity
8
0
100
AcDbLine
10
37.625000000000028
20
-44.162599618823677
30
0
11
53.129758817750272
21
-44.162599618823677
31
0
0
LINE
5
215
100
AcDbEntity
8
0
100
AcDbLine
10
40.362937171780722
20
41.787400381176347
30
0
11
50.098669904504725
21
41.787400381176347
31
0
0
ARC
5
216
100
AcDbEntity
8
0
100
AcDbCircle
10
40.362937171780722
20
41.03740038117634
30
1.1102230246251565e-15
40
0.75000000000000178
210
0
220
-0
230
1
100
AcDbArc
50
90
51
308.94244066527256
0
ARC
5
217
100
AcDbEntity
8
0
100
AcDbCircle
10
41.777150715714555
20
39.287400366275179
30
0
40
1.4999999999999947
210
2.9193718006767125e-46
220
4.9303806576313238e-32
230
1
100
AcDbArc
50
90
51
128.94244066527207
0
LINE
5
218
100
AcDbEntity
8
0
100
AcDbLine
10
41.777150715714555
20
40.787400366275186
30
1.1102230246251565e-15
11
50.225021322202039
21
40.787400366275186
31
1.1102230246251565e-15
0
ARC
5
219
100
AcDbEntity
8
0
100
AcDbCircle
10
50.225021322202075
20
39.287400366275222
30
0
40
1.4999999999999636
210
-3.3896367204885774e-32
220
3.5803653908868747e-32
230
1
100
AcDbArc
50
43.432536851713053
51
90.00000000000081
0
ARC
5
220
100
AcDbEntity
8
0
100
AcDbCircle
10
53.129758817750243
20
42.037400381176333
30
0
40
2.4999999999999969
210
-3.3896367204886305e-32
220
3.5803653908868238e-32
230
1
100
AcDbArc
50
223.43253685171413
51
296.30514898404545
0
ARC
5
221
100
AcDbEntity
8
0
100
AcDbCircle
10
54.902365831087074
20
38.451613943549425
30
0
40
1.4999999999999827
210
-2.0751626472298048e-48
220
1.3047896417593348e-47
230
1
100
AcDbArc
50
99.036745840534053
51
116.30514898404587
0
ARC
5
222
100
AcDbEntity
8
0
100
AcDbCircle
10
54.665292723682981
20
41.451613943549432
30
0
40
1.5000000000000278
210
-0
220
0
230
1
100
AcDbArc
50
279.03674584053516
51
315.00000000000057
0
LINE
5
223
100
AcDbEntity
8
0
100
AcDbLine
10
55.725952895462854
20
40.390953771769595
30
1.1102230246251565e-15
11
58.933059676648639
21
43.598060552955417
31
1.1102230246251565e-15
0
ARC
5
224
100
AcDbEntity
8
0
100
AcDbCircle
10
59.993719848428455
20
42.537400381175559
30
0
40
1.5000000000000568
210
-2.3354974405391505e-46
220
4.9303806576313238e-32
230
1
100
AcDbArc
50
90.000000000006793
51
134.99999999999923
0
LINE
5
225
100
AcDbEntity
8
0
100
AcDbLine
10
59.993719848428277
20
44.037400381175615
30
1.1102230246251565e-15
11
66.674999999999955
21
44.03740038117634
31
1.1102230246251565e-15
0
ARC
5
226
100
AcDbEntity
8
0
100
AcDbCircle
10
66.674999999999969
20
42.037400381176333
30
0
40
1.9999999999999909
210
1.1905955026605423e-32
220
3.1901910345002525e-33
230
1
100
AcDbArc
50
15.000000000000266
51
90
0
LINE
5
227
100
AcDbEntity
8
0
100
AcDbLine
10
68.606851652578086
20
42.55503847138138
30
0
11
69.817349130544642
21
38.037400381176326
31
0
0
LINE
5
228
100
AcDbEntity
8
0
100
AcDbLine
10
63.532650869455303
20
38.037400381176326
30
1.1102230246251565e-15
11
69.817349130544628
21
38.037400381176326
31
1.1102230246251565e-15
0
LINE
5
229
100
AcDbEntity
8
0
100
AcDbLine
10
63.766427828289167
20
38.909867869183294
30
0
11
63.532650869455296
21
38.037400381176326
31
0
0
ARC
5
230
100
AcDbEntity
8
0
100
AcDbCircle
10
62.317539088855582
20
39.298096436837078
30
0
40
1.5000000000000016
210
1.190595502660543e-32
220
-3.1901910345002039e-33
230
1
100
AcDbArc
50
-15.000000000000391
51
89.99999999999973
0
LINE
5
231
100
AcDbEntity
8
0
100
AcDbLine
10
62.317539088855582
20
40.798096436837085
30
1.1102230246251565e-15
11
59.58284302883613
21
40.798096436837085
31
1.1102230246251565e-15
0
ARC
5
232
100
AcDbEntity
8
0
100
AcDbCircle
10
59.582843028836123
20
39.298096436837113
30
0
40
1.4999999999999769
210
0
220
4.9303806576313238e-32
230
1
100
AcDbArc
50
90
51
135.0000000000006
0
LINE
5
233
100
AcDbEntity
8
0
100
AcDbLine
10
57.140166457835946
20
38.976740209396503
30
0
11
58.522182857056329
21
40.358756608616886
31
0
0
ARC
5
234
100
AcDbEntity
8
0
100
AcDbCircle
10
56.079506286056144
20
40.037400381176283
30
1.1102230246251565e-15
40
1.4999999999999503
210
-0
220
0
230
1
100
AcDbArc
50
270
51
315.00000000000153
0
LINE
5
235
100
AcDbEntity
8
0
100
AcDbLine
10
56.079506286056109
20
38.53740038117634
30
0
11
38.917893218813113
21
38.53740038117634
31
0
0
ARC
5
236
100
AcDbEntity
8
0
100
AcDbCircle
10
38.917893218813155
20
40.037400381176411
30
1.1102230246251565e-15
40
1.5000000000000848
210
-3.4863055968417771e-32
220
3.4863055968424198e-32
230
1
100
AcDbArc
50
224.99999999999483
51
269.99999999999864
0
LINE
5
237
100
AcDbEntity
8
0
100
AcDbLine
10
36.210786437626901
20
40.623186818803241
30
1.1102230246251565e-15
11
37.857233047033162
21
38.976740209396624
31
1.1102230246251565e-15
0
ARC
5
238
100
AcDbEntity
8
0
100
AcDbCircle
10
37.625000000000028
20
42.037400381176333
30
0
40
2.0000000000000018
210
0
220
-4.9303806576313238e-32
230
1
100
AcDbArc
50
90
51
224.99999999999957
0
LINE
5
239
100
AcDbEntity
8
0
100
AcDbLine
10
37.625000000000028
20
44.037400381176326
30
1.1102230246251565e-15
11
53.129758817750272
21
44.037400381176326
31
1.1102230246251565e-15
0
CIRCLE
5
240
100
AcDbEntity
8
0
100
AcDbCircle
10
-37.624999999999957
20
42.037400381176866
30
0
40
1.25
210
0
220
-0
230
1
0
CIRCLE
5
241
100
AcDbEntity
8
0
100
AcDbCircle
10
-53.129758817750208
20
42.037400381177079
30
0
40
1.25
210
0
220
-0
230
1
0
CIRCLE
5
242
100
AcDbEntity
8
0
100
AcDbCircle
10
-66.674999999999912
20
42.037400381177278
30
0
40
1.25
210
0
220
-0
230
1
0
CIRCLE
5
243
100
AcDbEntity
8
0
100
AcDbCircle
10
-66.674999999999912
20
-42.162599618824643
30
1.1102230246251565e-15
40
1.25
210
0
220
-0
230
1
0
CIRCLE
5
244
100
AcDbEntity
8
0
100
AcDbCircle
10
-53.129758817750208
20
-42.16259961882443
30
1.1102230246251565e-15
40
1.25
210
0
220
-0
230
1
0
CIRCLE
5
245
100
AcDbEntity
8
0
100
AcDbCircle
10
-37.624999999999972
20
-42.162599618824217
30
1.1102230246251565e-15
40
1.25
210
0
220
-0
230
1
0
CIRCLE
5
246
100
AcDbEntity
8
0
100
AcDbCircle
10
53.129758817750243
20
-42.162599618823684
30
1.1102230246251565e-15
40
1.25
210
0
220
-0
230
1
0
CIRCLE
5
247
100
AcDbEntity
8
0
100
AcDbCircle
10
37.625000000000028
20
-42.162599618823684
30
1.1102230246251565e-15
40
1.25
210
0
220
-0
230
1
0
CIRCLE
5
248
100
AcDbEntity
8
0
100
AcDbCircle
10
66.674999999999969
20
-42.162599618823684
30
1.1102230246251565e-15
40
1.25
210
0
220
-0
230
1
0
CIRCLE
5
249
100
AcDbEntity
8
0
100
AcDbCircle
10
66.674999999999969
20
42.037400381176333
30
0
40
1.25
210
0
220
-0
230
1
0
CIRCLE
5
250
100
AcDbEntity
8
0
100
AcDbCircle
10
53.129758817750243
20
42.037400381176333
30
0
40
1.25
210
0
220
-0
230
1
0
CIRCLE
5
251
100
AcDbEntity
8
0
100
AcDbCircle
10
37.625000000000028
20
42.037400381176333
30
0
40
1.25
210
0
220
-0
230
1
0
ARC
5
252
100
AcDbEntity
8
0
100
AcDbCircle
10
-53.129758817750208
20
-42.16259961882443
30
1.1102230246251565e-15
40
1.7999999999999887
210
0
220
-0
230
1
100
AcDbArc
50
32.025931650178173
51
237.47434459169028
0
ARC
5
253
100
AcDbEntity
8
0
100
AcDbCircle
10
-50.331991851042673
20
-40.412599618824387
30
0
40
1.5000000000000011
210
0
220
0
230
1
100
AcDbArc
50
212.02593165017956
51
270.00000000000057
0
LINE
5
254
100
AcDbEntity
8
0
100
AcDbLine
10
-50.098669904504675
20
-41.912599618824373
30
1.1102230246251565e-15
11
-50.331991851042659
21
-41.912599618824373
31
1.1102230246251565e-15
0
ARC
5
255
100
AcDbEntity
8
0
100
AcDbCircle
10
-50.297948812695346
20
-37.268261226013522
30
0
40
7.4532576622115423
210
0
220
0
230
1
100
AcDbArc
50
239.34986465565939
51
244.97392890700172
0
ARC
5
256
100
AcDbEntity
8
0
100
AcDbCircle
10
-52.816359044672353
20
-42.662599618824188
30
1.1102230246251565e-15
40
1.5000000000002625
210
-2.233746898059944e-32
220
1.0428509733868249e-32
230
1
100
AcDbArc
50
244.9739289070034
51
269.99999999999835
0
ARC
5
257
100
AcDbEntity
8
0
100
AcDbCircle
10
50.29794881269531
20
-37.268261226012811
30
0
40
7.4532576622115512
210
-2.0857019467738547e-32
220
4.4674937961197954e-32
230
1
100
AcDbArc
50
295.02607109299925
51
300.65013534434161
0
ARC
5
258
100
AcDbEntity
8
0
100
AcDbCircle
10
52.816359044672438
20
-42.662599618823407
30
1.1102230246251565e-15
40
1.50000000000027
210
-2.8025969286496341e-45
220
-1.327576592610138e-58
230
1
100
AcDbArc
50
270.00000000000273
51
295.02607109299754
0
ARC
5
259
100
AcDbEntity
8
0
100
AcDbCircle
10
53.129758817750243
20
-42.162599618823684
30
1.1102230246251565e-15
40
1.7999999999999972
210
-0
220
0
230
1
100
AcDbArc
50
-57.474344591690048
51
147.97406834982215
0
ARC
5
260
100
AcDbEntity
8
0
100
AcDbCircle
10
50.33199185104273
20
-40.412599618823677
30
0
40
1.4999999999999858
210
-0
220
0
230
1
100
AcDbArc
50
270
51
327.97406834982121
0
LINE
5
261
100
AcDbEntity
8
0
100
AcDbLine
10
50.098669904504725
20
-41.912599618823698
30
1.1102230246251565e-15
11
50.331991851042716
21
-41.912599618823677
31
1.1102230246251565e-15
0
ARC
5
262
100
AcDbEntity
8
0
100
AcDbCircle
10
53.129758817750243
20
42.037400381176333
30
0
40
1.800000000000006
210
0
220
0
230
1
100
AcDbArc
50
-147.97406834982138
51
57.474344591690368
0
ARC
5
263
100
AcDbEntity
8
0
100
AcDbCircle
10
50.33199185104273
20
40.28740038117634
30
1.1102230246251565e-15
40
1.4999999999999793
210
-7.2569611522503886e-49
220
1.160187782311194e-48
230
1
100
AcDbArc
50
32.025931650179004
51
90.00000000000027
0
LINE
5
264
100
AcDbEntity
8
0
100
AcDbLine
10
50.098669904504725
20
41.787400381176347
30
0
11
50.331991851042716
21
41.78740038117634
31
0
0
ARC
5
265
100
AcDbEntity
8
0
100
AcDbCircle
10
50.29794881269531
20
37.14306198836546
30
1.1102230246251565e-15
40
7.4532576622115423
210
-1.686162299247012e-32
220
-2.8454591902597e-32
230
1
100
AcDbArc
50
59.349864655658422
51
64.973928907000726
0
ARC
5
266
100
AcDbEntity
8
0
100
AcDbCircle
10
52.816359044672438
20
42.53740038117607
30
0
40
1.500000000000262
210
2.2337468980599306e-32
220
-1.0428509733868469e-32
230
1
100
AcDbArc
50
64.973928907002673
51
89.999999999997286
0
ARC
5
267
100
AcDbEntity
8
0
100
AcDbCircle
10
-53.129758817750208
20
42.037400381177079
30
0
40
1.799999999999998
210
0
220
0
230
1
100
AcDbArc
50
122.52565540830896
51
327.97406834982104
0
ARC
5
268
100
AcDbEntity
8
0
100
AcDbCircle
10
-50.331991851042694
20
40.287400381177051
30
1.1102230246251565e-15
40
1.4999999999999858
210
0
220
-0
230
1
100
AcDbArc
50
89.99999999999865
51
147.97406834981979
0
LINE
5
269
100
AcDbEntity
8
0
100
AcDbLine
10
-50.098669904504675
20
41.787400381177036
30
0
11
-50.331991851042659
21
41.787400381177036
31
0
0
ARC
5
270
100
AcDbEntity
8
0
100
AcDbCircle
10
-50.297948812695346
20
37.143061988366171
30
1.1102230246251565e-15
40
7.4532576622115574
210
1.3991881411455893e-32
220
-2.9970074822250386e-32
230
1
100
AcDbArc
50
115.02607109299838
51
120.65013534434074
0
ARC
5
271
100
AcDbEntity
8
0
100
AcDbCircle
10
-52.816359044672353
20
42.537400381176823
30
0
40
1.5000000000002611
210
0
220
0
230
1
100
AcDbArc
50
90.000000000001904
51
115.02607109299686
0
ARC
5
272
100
AcDbEntity
8
0
100
AcDbCircle
10
58.15203224360566
20
36.537400381175509
30
0
40
1.5000000000000036
210
0
220
-0
230
1
100
AcDbArc
50
90
51
123.55730976189163
0
ARC
5
273
100
AcDbEntity
8
0
100
AcDbCircle
10
56.493719848429222
20
39.037400381176361
30
0
40
1.5000000000000213
210
-0
220
0
230
1
100
AcDbArc
50
270
51
303.55730976189295
0
ARC
5
274
100
AcDbEntity
8
0
100
AcDbCircle
10
38.503679635366481
20
39.03740038117634
30
0
40
1.5000000000000069
210
2.0543252740134909e-32
220
-1.3626852262484049e-32
230
1
100
AcDbArc
50
236.44269023809687
51
269.99999999999943
0
ARC
5
275
100
AcDbEntity
8
0
100
AcDbCircle
10
36.845367240189617
20
36.537400381175864
30
0
40
1.4999999999999369
210
0
220
-0
230
1
100
AcDbArc
50
56.442690238097157
51
90.000000000001364
0
LINE
5
276
100
AcDbEntity
8
0
100
AcDbLine
10
56.493719848429187
20
37.53740038117634
30
1.1102230246251565e-15
11
38.503679635366488
21
37.53740038117634
31
1.1102230246251565e-15
0
ARC
5
277
100
AcDbEntity
8
0
100
AcDbCircle
10
-58.152032243606712
20
36.537400381174692
30
0
40
1.4999999999999831
210
2.0543252740137635e-32
220
-1.3626852262479941e-32
230
1
100
AcDbArc
50
56.44269023810913
51
90
0
ARC
5
278
100
AcDbEntity
8
0
100
AcDbCircle
10
-56.493719848430274
20
39.03740038117558
30
0
40
1.5000000000000557
210
2.0543252740137359e-32
220
-1.3626852262480384e-32
230
1
100
AcDbArc
50
236.44269023810818
51
270
0
ARC
5
279
100
AcDbEntity
8
0
100
AcDbCircle
10
-38.503679635367561
20
39.037400381175814
30
0
40
1.5000000000000036
210
-0
220
0
230
1
100
AcDbArc
50
270
51
303.55730976190256
0
ARC
5
280
100
AcDbEntity
8
0
100
AcDbCircle
10
-36.845367240190669
20
36.537400381175345
30
0
40
1.4999999999999325
210
0
220
-0
230
1
100
AcDbArc
50
90
51
123.5573097619036
0
LINE
5
281
100
AcDbEntity
8
0
100
AcDbLine
10
-56.493719848430274
20
37.537400381175559
30
1.1102230246251565e-15
11
-38.503679635367561
21
37.537400381175807
31
1.1102230246251565e-15
0
ARC
5
282
100
AcDbEntity
8
0
100
AcDbCircle
10
-58.152032243606726
20
-36.662599618822043
30
1.1102230246251565e-15
40
1.5000000000000036
210
-0
220
0
230
1
100
AcDbArc
50
270
51
303.55730976189125
0
ARC
5
283
100
AcDbEntity
8
0
100
AcDbCircle
10
-56.493719848430288
20
-39.162599618822931
30
1.1102230246251565e-15
40
1.5000000000000213
210
0
220
-0
230
1
100
AcDbArc
50
89.99999999999865
51
123.55730976189095
0
ARC
5
284
100
AcDbEntity
8
0
100
AcDbCircle
10
-38.503679635367583
20
-39.16259961882318
30
1.1102230246251565e-15
40
1.5000000000000193
210
-1.664954230073783e-46
220
1.1044056948531969e-46
230
1
100
AcDbArc
50
56.442690238097533
51
89.99999999999973
0
ARC
5
285
100
AcDbEntity
8
0
100
AcDbCircle
10
-36.845367240190669
20
-36.662599618822718
30
1.1102230246251565e-15
40
1.499999999999917
210
2.0543252740134559e-32
220
-1.3626852262484552e-32
230
1
100
AcDbArc
50
236.44269023809633
51
270.0000000000008
0
LINE
5
286
100
AcDbEntity
8
0
100
AcDbLine
10
-56.493719848430253
20
-37.66259961882291
30
0
11
-38.503679635367554
21
-37.662599618823158
31
0
0
ARC
5
287
100
AcDbEntity
8
0
100
AcDbCircle
10
58.15203224360566
20
-36.662599618822895
30
1.1102230246251565e-15
40
1.4999999999999905
210
2.0543252740137433e-32
220
-1.3626852262480242e-32
230
1
100
AcDbArc
50
236.44269023810827
51
269.99999999999972
0
ARC
5
288
100
AcDbEntity
8
0
100
AcDbCircle
10
56.493719848429222
20
-39.162599618823712
30
1.1102230246251565e-15
40
1.5000000000000346
210
2.0543252740137121e-32
220
-1.3626852262480715e-32
230
1
100
AcDbArc
50
56.442690238107161
51
90
0
ARC
5
289
100
AcDbEntity
8
0
100
AcDbCircle
10
38.503679635366481
20
-39.162599618823712
30
1.1102230246251565e-15
40
1.5000000000000036
210
0
220
-0
230
1
100
AcDbArc
50
90
51
123.55730976190256
0
ARC
5
290
100
AcDbEntity
8
0
100
AcDbCircle
10
36.845367240189617
20
-36.662599618823215
30
1.1102230246251565e-15
40
1.4999999999999325
210
0
220
0
230
1
100
AcDbArc
50
269.99999999999864
51
303.55730976190262
0
LINE
5
291
100
AcDbEntity
8
0
100
AcDbLine
10
56.493719848429187
20
-37.662599618823691
30
0
11
38.503679635366488
21
-37.662599618823691
31
0
0
LINE
5
292
100
AcDbEntity
8
0
100
AcDbLine
10
-54.666764021858668
20
39.932995659207293
30
0
11
-54.900894532913625
21
39.970232227889987
31
0
0
LINE
5
293
100
AcDbEntity
8
0
100
AcDbLine
10
54.666764021857581
20
39.932995659208075
30
0
11
54.900894532912538
21
39.970232227890769
31
0
0
LINE
5
294
100
AcDbEntity
8
0
100
AcDbLine
10
54.666764021857581
20
-40.058194896855426
30
0
11
54.900894532912538
21
-40.095431465538113
31
0
0
LINE
5
295
100
AcDbEntity
8
0
100
AcDbLine
10
-54.666764021858683
20
-40.058194896854644
30
0
11
-54.90089453291364
21
-40.095431465537331
31
0
0
LWPOLYLINE
5
296
100
AcDbEntity
8
0
100
AcDbPolyline
90
8
70
1
43
0.0
10
51.124999999999972
20
-21.137599618823721
10
51.124999999999972
20
-20.137599618823749
42
0.41421356237310542
10
50.624999999999929
20
-19.637599618823725
10
44.624999999999986
20
-19.637599618823725
42
0.41421356237309509
10
44.124999999999979
20
-20.137599618823732
42
-0.41421356237309509
10
44.624999999999986
20
-19.637599618823725
10
50.624999999999929
20
-19.637599618823689
42
-0.41421356237310542
10
51.124999999999972
20
-20.137599618823749
0
LWPOLYLINE
5
297
100
AcDbEntity
8
0
100
AcDbPolyline
90
32
70
1
43
0.0
10
83.987499999999926
20
-21.637599618823717
10
96.987499999999926
20
-21.637599618823717
42
-0.41421356237311585
10
97.487499999999983
20
-22.137599618823725
10
97.487499999999983
20
-35.137599618823728
42
-0.41421356237311585
10
96.987499999999926
20
-35.637599618823742
10
83.987499999999926
20
-35.637599618823771
42
-0.41421356237309509
10
83.487499999999883
20
-35.137599618823728
10
83.487499999999926
20
-22.137599618823725
42
-0.41421356237309509
10
83.987499999999926
20
-21.637599618823717
10
96.987499999999926
20
-21.637599618823717
42
-0.41421356237311585
10
97.487499999999983
20
-22.137599618823725
10
97.487499999999983
20
-35.137599618823728
42
-0.41421356237311585
10
96.987499999999926
20
-35.637599618823742
10
83.987499999999926
20
-35.637599618823771
42
-0.41421356237309509
10
83.487499999999883
20
-35.137599618823728
10
83.487499999999926
20
-22.137599618823725
42
-0.41421356237309509
10
83.987499999999926
20
-21.637599618823717
10
96.987499999999926
20
-21.637599618823717
42
-0.41421356237311585
10
97.487499999999983
20
-22.137599618823725
10
97.487499999999983
20
-35.137599618823728
42
-0.41421356237311585
10
96.987499999999926
20
-35.637599618823742
10
83.987499999999926
20
-35.637599618823771
42
-0.41421356237309509
10
83.487499999999883
20
-35.137599618823728
10
83.487499999999926
20
-22.137599618823725
42
-0.41421356237309509
10
83.987499999999926
20
-21.637599618823717
10
96.987499999999926
20
-21.637599618823717
42
-0.41421356237311585
10
97.487499999999983
20
-22.137599618823725
10
97.487499999999983
20
-35.137599618823728
42
-0.41421356237311585
10
96.987499999999926
20
-35.637599618823742
10
83.987499999999926
20
-35.637599618823771
42
-0.41421356237309509
10
83.487499999999883
20
-35.137599618823728
10
83.487499999999926
20
-22.137599618823725
42
-0.41421356237309509
0
LWPOLYLINE
5
298
100
AcDbEntity
8
0
100
AcDbPolyline
90
8
70
1
43
0.0
10
59.67499999999994
20
-22.137599618823725
10
59.67499999999994
20
-35.137599618823728
42
0.41421356237309509
10
60.174999999999912
20
-35.637599618823742
10
73.174999999999883
20
-35.637599618823742
42
0.41421356237309509
10
73.674999999999898
20
-35.137599618823728
10
73.674999999999926
20
-22.137599618823725
42
0.41421356237309509
10
73.174999999999883
20
-21.637599618823717
10
60.174999999999912
20
-21.637599618823717
42
0.41421356237309509
0
LWPOLYLINE
5
299
100
AcDbEntity
8
0
100
AcDbPolyline
90
2
70
1
43
0.0
10
73.174999999999883
20
-35.637599618823742
42
0.41421356237309509
10
73.674999999999898
20
-35.137599618823728
42
-0.41421356237309509
0
LWPOLYLINE
5
300
100
AcDbEntity
8
0
100
AcDbPolyline
90
2
70
1
43
0.0
10
60.174999999999912
20
-35.637599618823742
10
73.174999999999883
20
-35.637599618823742
0
ARC
5
301
100
AcDbEntity
8
0
100
AcDbCircle
10
51.743749999999977
20
-22.137599618823725
30
0
40
0.50000000000000711
210
0
220
0
230
1
100
AcDbArc
50
0
51
90
0
LWPOLYLINE
5
302
100
AcDbEntity
8
0
100
AcDbPolyline
90
2
70
1
43
0.0
10
60.174999999999912
20
-21.637599618823717
42
0.41421356237309509
10
59.674999999999905
20
-22.137599618823725
42
-0.41421356237309509
0
LINE
5
303
100
AcDbEntity
8
0
100
AcDbLine
10
9.1687499999999105
20
-34.637599618823728
30
0
11
7.4999999999999591
21
-34.637599618823728
31
0
0
LINE
5
304
100
AcDbEntity
8
0
100
AcDbLine
10
12.524999999999942
20
-19.637599618823725
30
0
11
6.5249999999999453
21
-19.637599618823725
31
0
0
LWPOLYLINE
5
305
100
AcDbEntity
8
0
100
AcDbPolyline
90
14
70
1
43
0.0
10
60.174999999999912
20
-21.637599618823717
10
73.174999999999883
20
-21.637599618823682
42
-0.41421356237309509
10
73.674999999999926
20
-22.137599618823725
10
73.674999999999898
20
-35.137599618823728
42
-0.41421356237309509
10
73.174999999999883
20
-35.637599618823742
10
60.174999999999912
20
-35.6375996188237
42
-0.41421356237309509
10
59.67499999999994
20
-35.137599618823728
10
59.674999999999905
20
-22.137599618823725
42
-0.41421356237309509
10
60.174999999999912
20
-21.637599618823717
10
73.174999999999883
20
-21.637599618823682
42
-0.41421356237309509
10
73.674999999999926
20
-22.137599618823725
10
73.674999999999898
20
-35.137599618823728
10
73.674999999999926
20
-22.137599618823725
42
0.41421356237309509
10
73.174999999999883
20
-21.637599618823717
0
LWPOLYLINE
5
306
100
AcDbEntity
8
0
100
AcDbPolyline
90
2
70
1
43
0.0
10
59.67499999999994
20
-35.137599618823728
42
0.41421356237309509
10
60.174999999999912
20
-35.6375996188237
42
-0.41421356237309509
0
ARC
5
307
100
AcDbEntity
8
0
100
AcDbCircle
10
10.168749999999918
20
-35.137599618823728
30
0
40
0.50000000000000711
210
0
220
0
230
1
100
AcDbArc
50
180
51
270
0
LWPOLYLINE
5
308
100
AcDbEntity
8
0
100
AcDbPolyline
90
2
70
1
43
0.0
10
44.124999999999986
20
-21.137599618823721
10
44.124999999999979
20
-20.137599618823732
0
ARC
5
309
100
AcDbEntity
8
0
100
AcDbCircle
10
51.743749999999977
20
-35.137599618823728
30
0
40
0.50000000000000711
210
0
220
0
230
1
100
AcDbArc
50
-90.000000000004079
51
0
0
LINE
5
310
100
AcDbEntity
8
0
100
AcDbLine
10
6.0249999999999257
20
-21.137599618823721
30
0
11
6.0249999999999204
21
-20.137599618823749
31
0
0
LINE
5
311
100
AcDbEntity
8
0
100
AcDbLine
10
13.024999999999949
20
-21.137599618823721
30
0
11
13.024999999999949
21
-20.137599618823749
31
0
0
ARC
5
312
100
AcDbEntity
8
0
100
AcDbCircle
10
12.524999999999942
20
-20.137599618823732
30
0
40
0.50000000000000711
210
0
220
0
230
1
100
AcDbArc
50
0
51
90
0
LWPOLYLINE
5
313
100
AcDbEntity
8
0
100
AcDbPolyline
90
2
70
1
43
0.0
10
59.67499999999994
20
-22.137599618823725
10
59.67499999999994
20
-35.137599618823728
0
ARC
5
314
100
AcDbEntity
8
0
100
AcDbCircle
10
6.5249999999999631
20
-20.137599618823732
30
0
40
0.50000000000000711
210
0
220
0
230
1
100
AcDbArc
50
90.000000000002032
51
180
0
LINE
5
315
100
AcDbEntity
8
0
100
AcDbLine
10
52.243749999999984
20
-22.137599618823725
30
0
11
52.243749999999984
21
-35.137599618823728
31
0
0
LINE
5
316
100
AcDbEntity
8
0
100
AcDbLine
10
-52.243750000000055
20
-22.137599618823714
30
0
11
-52.243750000000055
21
-35.137599618823728
31
0
0
LWPOLYLINE
5
317
100
AcDbEntity
8
0
100
AcDbPolyline
90
8
70
1
43
0.0
10
-96.987500000000068
20
-21.637599618823717
10
-83.987500000000068
20
-21.637599618823717
42
-0.41421356237309509
10
-83.487500000000068
20
-22.137599618823725
10
-83.487500000000068
20
-35.137599618823728
42
-0.41421356237309509
10
-83.987500000000068
20
-35.637599618823742
10
-96.987500000000068
20
-35.6375996188237
42
-0.41421356237309509
10
-97.48750000000004
20
-35.137599618823728
10
-97.487500000000082
20
-22.137599618823725
42
-0.41421356237309509
0
LINE
5
318
100
AcDbEntity
8
0
100
AcDbLine
10
-5.5250000000000599
20
-21.637599618823717
30
0
11
5.5249999999999222
21
-21.637599618823717
31
0
0
ARC
5
319
100
AcDbEntity
8
0
100
AcDbCircle
10
-10.16875000000006
20
-35.137599618823728
30
0
40
0.50000000000000711
210
0
220
0
230
1
100
AcDbArc
50
-89.999999999997954
51
0
0
LWPOLYLINE
5
320
100
AcDbEntity
8
0
100
AcDbPolyline
90
8
70
1
43
0.0
10
-97.487500000000082
20
-22.137599618823725
10
-97.48750000000004
20
-35.137599618823728
42
0.41421356237309509
10
-96.987500000000068
20
-35.637599618823742
10
-83.987500000000068
20
-35.637599618823742
42
0.41421356237309509
10
-83.487500000000068
20
-35.137599618823728
10
-83.487500000000068
20
-22.137599618823725
42
0.41421356237309509
10
-83.987500000000068
20
-21.637599618823717
10
-96.987500000000068
20
-21.637599618823717
42
0.41421356237309509
0
ARC
5
321
100
AcDbEntity
8
0
100
AcDbCircle
10
22.049999999999947
20
-20.137599618823732
30
0
40
0.50000000000000711
210
0
220
0
230
1
100
AcDbArc
50
0
51
90
0
LWPOLYLINE
5
322
100
AcDbEntity
8
0
100
AcDbPolyline
90
2
70
1
43
0.0
10
-59.675000000000054
20
-22.137599618823725
42
0.41421356237309509
10
-60.175000000000054
20
-21.637599618823728
42
-0.41421356237309509
0
LWPOLYLINE
5
323
100
AcDbEntity
8
0
100
AcDbPolyline
90
6
70
1
43
0.0
10
-44.125000000000057
20
-20.137599618823732
42
0.41421356237309509
10
-44.625000000000057
20
-19.637599618823725
10
-50.625000000000064
20
-19.637599618823725
42
0.4142135623731002
10
-51.125000000000078
20
-20.137599618823732
42
-0.4142135623731002
10
-50.625000000000064
20
-19.637599618823725
10
-44.625000000000057
20
-19.637599618823735
42
-0.41421356237309509
0
LWPOLYLINE
5
324
100
AcDbEntity
8
0
100
AcDbPolyline
90
8
70
1
43
0.0
10
-83.487500000000068
20
-22.137599618823725
42
0.41421356237309509
10
-83.987500000000068
20
-21.637599618823717
10
-96.987500000000068
20
-21.637599618823717
42
0.41421356237309509
10
-97.487500000000082
20
-22.137599618823725
10
-97.48750000000004
20
-35.137599618823728
42
0.41421356237309509
10
-96.987500000000068
20
-35.637599618823742
10
-83.987500000000068
20
-35.637599618823742
42
0.41421356237309509
10
-83.487500000000068
20
-35.137599618823728
0
LWPOLYLINE
5
325
100
AcDbEntity
8
0
100
AcDbPolyline
90
2
70
1
43
0.0
10
-44.12500000000005
20
-21.137599618823721
10
-44.125000000000057
20
-20.137599618823732
0
LINE
5
326
100
AcDbEntity
8
0
100
AcDbLine
10
22.049999999999947
20
-19.637599618823725
30
0
11
16.049999999999951
21
-19.637599618823725
31
0
0
ARC
5
327
100
AcDbEntity
8
0
100
AcDbCircle
10
-22.050000000000054
20
-20.137599618823732
30
0
40
0.50000000000000711
210
0
220
-0
230
1
100
AcDbArc
50
90
51
180
0
LWPOLYLINE
5
328
100
AcDbEntity
8
0
100
AcDbPolyline
90
8
70
1
43
0.0
10
-73.175000000000068
20
-21.637599618823717
42
0.41421356237309509
10
-73.675000000000054
20
-22.137599618823725
10
-73.675000000000068
20
-35.137599618823728
42
0.41421356237309509
10
-73.175000000000068
20
-35.637599618823742
10
-60.175000000000061
20
-35.637599618823742
42
0.4142135623731002
10
-59.675000000000047
20
-35.137599618823728
10
-59.675000000000054
20
-22.137599618823725
42
0.41421356237309509
10
-60.175000000000054
20
-21.637599618823717
0
LWPOLYLINE
5
329
100
AcDbEntity
8
0
100
AcDbPolyline
90
8
70
1
43
0.0
10
-73.675000000000054
20
-22.137599618823725
10
-73.675000000000068
20
-35.137599618823728
42
0.41421356237309509
10
-73.175000000000068
20
-35.637599618823742
10
-60.175000000000061
20
-35.637599618823742
42
0.4142135623731002
10
-59.675000000000047
20
-35.137599618823728
10
-59.675000000000054
20
-22.137599618823725
42
0.41421356237309509
10
-60.175000000000054
20
-21.637599618823717
10
-73.175000000000068
20
-21.637599618823717
42
0.41421356237309509
0
LWPOLYLINE
5
330
100
AcDbEntity
8
0
100
AcDbPolyline
90
24
70
1
43
0.0
10
98.281749999999946
20
-18.58759961882372
42
0.41421356237309509
10
98.78174999999996
20
-18.087599618823713
10
98.78174999999996
20
-17.087599618823727
42
-0.41421356237308854
10
99.28174999999996
20
-16.587599618823731
10
101.74999999999994
20
-16.587599618823727
42
0.41421356237311585
10
102.24999999999994
20
-16.08759961882372
10
102.24999999999997
20
-3.0875996188237131
42
0.41421356237309509
10
101.74999999999997
20
-2.587599618823706
10
64.937499999999986
20
-2.587599618823706
42
0.41421356237309509
10
64.437499999999972
20
-3.0875996188237131
10
64.437499999999972
20
-16.08759961882372
42
0.41421356237309509
10
64.937499999999986
20
-16.587599618823727
10
67.405749999999941
20
-16.587599618823731
42
-0.41421356237308982
10
67.905749999999927
20
-17.087599618823727
10
67.905749999999927
20
-18.087599618823713
42
0.41421356237309509
10
68.405749999999941
20
-18.58759961882372
10
74.405749999999884
20
-18.58759961882372
42
0.41421356237309509
10
74.905749999999898
20
-18.087599618823713
10
74.905749999999898
20
-17.087599618823724
42
-0.41421356237309509
10
75.405749999999884
20
-16.587599618823724
10
91.281749999999931
20
-16.587599618823717
42
-0.41421356237308465
10
91.781749999999931
20
-17.087599618823724
10
91.781749999999931
20
-18.087599618823713
42
0.41421356237309509
10
92.281749999999931
20
-18.58759961882372
0
LWPOLYLINE
5
331
100
AcDbEntity
8
0
100
AcDbPolyline
90
8
70
1
43
0.0
10
-96.987500000000068
20
-35.637599618823742
10
-83.987500000000068
20
-35.637599618823742
42
0.41421356237309509
10
-83.487500000000068
20
-35.137599618823728
10
-83.487500000000068
20
-22.137599618823725
42
0.41421356237309509
10
-83.987500000000068
20
-21.637599618823717
10
-96.987500000000068
20
-21.637599618823717
42
0.41421356237309509
10
-97.487500000000082
20
-22.137599618823725
10
-97.48750000000004
20
-35.137599618823728
42
0.41421356237309509
0
LWPOLYLINE
5
332
100
AcDbEntity
8
0
100
AcDbPolyline
90
14
70
1
43
0.0
10
-59.675000000000054
20
-22.137599618823725
10
-59.675000000000047
20
-35.137599618823728
42
-0.4142135623731002
10
-60.175000000000061
20
-35.637599618823742
10
-73.175000000000068
20
-35.637599618823742
42
-0.41421356237309509
10
-73.675000000000068
20
-35.137599618823728
10
-73.675000000000068
20
-22.137599618823725
42
-0.41421356237309509
10
-73.175000000000068
20
-21.637599618823717
10
-60.175000000000054
20
-21.637599618823717
10
-73.175000000000068
20
-21.637599618823717
42
0.41421356237309509
10
-73.675000000000054
20
-22.137599618823725
10
-73.675000000000068
20
-35.137599618823728
42
0.41421356237309509
10
-73.175000000000068
20
-35.637599618823742
10
-60.175000000000061
20
-35.637599618823742
42
0.4142135623731002
10
-59.675000000000047
20
-35.137599618823728
0
LINE
5
333
100
AcDbEntity
8
0
100
AcDbLine
10
-6.0250000000000608
20
-21.137599618823721
30
0
11
-6.0250000000000625
21
-20.137599618823749
31
0
0
ARC
5
334
100
AcDbEntity
8
0
100
AcDbCircle
10
16.049999999999969
20
-20.137599618823732
30
0
40
0.50000000000000711
210
0
220
0
230
1
100
AcDbArc
50
90.000000000002032
51
180
0
LINE
5
335
100
AcDbEntity
8
0
100
AcDbLine
10
-22.550000000000061
20
-21.137599618823721
30
0
11
-22.550000000000061
21
-20.137599618823732
31
0
0
LINE
5
336
100
AcDbEntity
8
0
100
AcDbLine
10
-16.05000000000004
20
-19.637599618823725
30
0
11
-22.050000000000054
21
-19.637599618823725
31
0
0
LINE
5
337
100
AcDbEntity
8
0
100
AcDbLine
10
-15.050000000000033
20
-21.637599618823717
30
0
11
-13.525000000000055
21
-21.637599618823717
31
0
0
LINE
5
338
100
AcDbEntity
8
0
100
AcDbLine
10
22.549999999999955
20
-21.137599618823721
30
0
11
22.549999999999955
21
-20.137599618823732
31
0
0
LINE
5
339
100
AcDbEntity
8
0
100
AcDbLine
10
-5.5250000000000599
20
-21.637599618823717
30
0
11
5.5249999999999222
21
-21.637599618823717
31
0
0
ARC
5
340
100
AcDbEntity
8
0
100
AcDbCircle
10
-51.743750000000048
20
-35.137599618823728
30
0
40
0.50000000000000711
210
0
220
0
230
1
100
AcDbArc
50
180
51
270
0
LINE
5
341
100
AcDbEntity
8
0
100
AcDbLine
10
15.549999999999962
20
-21.137599618823721
30
0
11
15.549999999999962
21
-20.137599618823732
31
0
0
LWPOLYLINE
5
342
100
AcDbEntity
8
0
100
AcDbPolyline
90
2
70
1
43
0.0
10
6.4999999999999503
20
-35.637599618823742
42
0.41421356237309509
10
6.9999999999999574
20
-35.137599618823728
42
-0.41421356237309509
0
ARC
5
343
100
AcDbEntity
8
0
100
AcDbCircle
10
-6.5250000000000341
20
-20.137599618823732
30
0
40
0.49999999999997158
210
0
220
0
230
1
100
AcDbArc
50
0
51
90
0
ARC
5
344
100
AcDbEntity
8
0
100
AcDbCircle
10
-6.5000000000000568
20
-35.137599618823728
30
0
40
0.49999999999997136
210
0
220
0
230
1
100
AcDbArc
50
179.98709131015653
51
270
0
ARC
5
345
100
AcDbEntity
8
0
100
AcDbCircle
10
-16.05000000000004
20
-20.137599618823732
30
0
40
0.50000000000000711
210
0
220
0
230
1
100
AcDbArc
50
0
51
90
0
LWPOLYLINE
5
346
100
AcDbEntity
8
0
100
AcDbPolyline
90
2
70
1
43
0.0
10
-6.5000000000000568
20
-35.637599618823742
10
6.4999999999999503
20
-35.637599618823742
0
LINE
5
347
100
AcDbEntity
8
0
100
AcDbLine
10
-7.5000000000000195
20
-34.637599618823749
30
0
11
-9.168750000000049
21
-34.637599618823742
31
0
0
ARC
5
348
100
AcDbEntity
8
0
100
AcDbCircle
10
-6.5000000000000568
20
-35.137599618823728
30
0
40
0.49999999999997136
210
0
220
0
230
1
100
AcDbArc
50
179.98709131015653
51
180
0
LINE
5
349
100
AcDbEntity
8
0
100
AcDbLine
10
-6.5250000000000341
20
-19.637599618823725
30
0
11
-12.525000000000048
21
-19.637599618823725
31
0
0
LINE
5
350
100
AcDbEntity
8
0
100
AcDbLine
10
-51.125000000000078
20
-21.137599618823721
30
0
11
-51.125000000000071
21
-20.137599618823732
31
0
0
LINE
5
351
100
AcDbEntity
8
0
100
AcDbLine
10
-13.025000000000055
20
-21.137599618823721
30
0
11
-13.025000000000055
21
-20.137599618823749
31
0
0
ARC
5
352
100
AcDbEntity
8
0
100
AcDbCircle
10
-12.525000000000048
20
-20.137599618823732
30
0
40
0.50000000000000711
210
0
220
-0
230
1
100
AcDbArc
50
90
51
180
0
LINE
5
353
100
AcDbEntity
8
0
100
AcDbLine
10
-15.550000000000033
20
-21.137599618823721
30
0
11
-15.550000000000033
21
-20.137599618823732
31
0
0
LINE
5
354
100
AcDbEntity
8
0
100
AcDbLine
10
13.524999999999949
20
-21.637599618823717
30
0
11
15.049999999999962
21
-21.637599618823717
31
0
0
LINE
5
355
100
AcDbEntity
8
0
100
AcDbLine
10
23.049999999999955
20
-21.637599618823717
30
0
11
43.624999999999972
21
-21.637599618823717
31
0
0
LINE
5
356
100
AcDbEntity
8
0
100
AcDbLine
10
51.624999999999972
20
-21.637599618823717
30
0
11
51.743749999999977
21
-21.637599618823717
31
0
0
LINE
5
357
100
AcDbEntity
8
0
100
AcDbLine
10
51.743749999999942
20
-35.637599618823742
30
0
11
10.168749999999918
21
-35.637599618823742
31
0
0
LINE
5
358
100
AcDbEntity
8
0
100
AcDbLine
10
-51.743750000000048
20
-35.637599618823742
30
0
11
-10.168750000000042
21
-35.637599618823742
31
0
0
LINE
5
359
100
AcDbEntity
8
0
100
AcDbLine
10
-43.625000000000057
20
-21.637599618823717
30
0
11
-23.050000000000061
21
-21.637599618823717
31
0
0
ARC
5
360
100
AcDbEntity
8
0
100
AcDbCircle
10
-43.625000000000057
20
-21.137599618823725
30
0
40
0.49999999999998934
210
0
220
0
230
1
100
AcDbArc
50
180
51
270
0
ARC
5
361
100
AcDbEntity
8
0
100
AcDbCircle
10
-23.050000000000061
20
-21.137599618823721
30
0
40
0.49999999999999822
210
-0
220
0
230
1
100
AcDbArc
50
-90
51
0
0
ARC
5
362
100
AcDbEntity
8
0
100
AcDbCircle
10
-15.050000000000036
20
-21.137599618823725
30
0
40
0.499999999999996
210
0
220
0
230
1
100
AcDbArc
50
180
51
270.0000000000004
0
ARC
5
363
100
AcDbEntity
8
0
100
AcDbCircle
10
-13.525000000000052
20
-21.137599618823725
30
0
40
0.49999999999999378
210
0
220
0
230
1
100
AcDbArc
50
-90.000000000000398
51
0
0
ARC
5
364
100
AcDbEntity
8
0
100
AcDbCircle
10
-5.5250000000000608
20
-21.137599618823721
30
0
40
0.49999999999999933
210
0
220
0
230
1
100
AcDbArc
50
180
51
270.00000000000011
0
ARC
5
365
100
AcDbEntity
8
0
100
AcDbCircle
10
-9.1687500000000526
20
-35.137599618823742
30
0
40
0.50000000000000266
210
0
220
-0
230
1
100
AcDbArc
50
89.999999999999588
51
180
0
ARC
5
366
100
AcDbEntity
8
0
100
AcDbCircle
10
-7.5000000000000231
20
-35.137599618823742
30
0
40
0.49999999999999378
210
-0
220
0
230
1
100
AcDbArc
50
0
51
89.999999999999588
0
ARC
5
367
100
AcDbEntity
8
0
100
AcDbCircle
10
7.4999999999999556
20
-35.137599618823721
30
0
40
0.49999999999999822
210
0
220
-0
230
1
100
AcDbArc
50
89.999999999999588
51
180
0
ARC
5
368
100
AcDbEntity
8
0
100
AcDbCircle
10
9.1687499999999105
20
-35.137599618823721
30
0
40
0.49999999999999822
210
0
220
-0
230
1
100
AcDbArc
50
0
51
90
0
ARC
5
369
100
AcDbEntity
8
0
100
AcDbCircle
10
5.5249999999999275
20
-21.137599618823721
30
0
40
0.49999999999999822
210
0
220
0
230
1
100
AcDbArc
50
-90.000000000000611
51
0
0
ARC
5
370
100
AcDbEntity
8
0
100
AcDbCircle
10
13.524999999999945
20
-21.137599618823725
30
0
40
0.499999999999996
210
0
220
0
230
1
100
AcDbArc
50
180
51
270.0000000000004
0
ARC
5
371
100
AcDbEntity
8
0
100
AcDbCircle
10
15.049999999999965
20
-21.137599618823725
30
0
40
0.49999999999999378
210
0
220
0
230
1
100
AcDbArc
50
-90.000000000000398
51
0
0
ARC
5
372
100
AcDbEntity
8
0
100
AcDbCircle
10
23.049999999999955
20
-21.137599618823721
30
0
40
0.49999999999999822
210
0
220
0
230
1
100
AcDbArc
50
180
51
270
0
ARC
5
373
100
AcDbEntity
8
0
100
AcDbCircle
10
43.624999999999986
20
-21.137599618823721
30
0
40
0.49999999999999822
210
0
220
0
230
1
100
AcDbArc
50
-90.000000000001634
51
0
0
ARC
5
374
100
AcDbEntity
8
0
100
AcDbCircle
10
51.624999999999972
20
-21.137599618823721
30
0
40
0.49999999999999822
210
0
220
0
230
1
100
AcDbArc
50
180
51
270
0
LINE
5
375
100
AcDbEntity
8
0
100
AcDbLine
10
-51.625000000000071
20
-21.637599618823717
30
0
11
-51.743750000000055
21
-21.637599618823717
31
0
0
ARC
5
376
100
AcDbEntity
8
0
100
AcDbCircle
10
-51.743750000000055
20
-22.137599618823714
30
0
40
0.49999999999999822
210
0
220
-0
230
1
100
AcDbArc
50
90
51
180
0
ARC
5
377
100
AcDbEntity
8
0
100
AcDbCircle
10
-51.625000000000071
20
-21.137599618823725
30
0
40
0.49999999999999378
210
0
220
0
230
1
100
AcDbArc
50
-90
51
0
0
ENDSEC
0
SECTION
2
OBJECTS
0
DICTIONARY
5
C
100
AcDbDictionary
3
ACAD_GROUP
350
D
3
ACAD_MLINESTYLE
350
17
0
DICTIONARY
5
D
100
AcDbDictionary
0
DICTIONARY
5
1A
330
C
100
AcDbDictionary
0
DICTIONARY
5
17
100
AcDbDictionary
0
ENDSEC
0
EOF
